<svg viewBox="0 0 192 512" xmlns="http://www.w3.org/2000/svg" xmlns:xlink="http://www.w3.org/1999/xlink" overflow="hidden"><path d="M96 184C135.8 184 168 216.2 168 256 168 295.8 135.8 328 96 328 56.2 328 24 295.8 24 256 24 216.2 56.2 184 96 184ZM24 80C24 119.8 56.2 152 96 152 135.8 152 168 119.8 168 80 168 40.2 135.8 8 96 8 56.2 8 24 40.2 24 80ZM24 432C24 471.8 56.2 504 96 504 135.8 504 168 471.8 168 432 168 392.2 135.8 360 96 360 56.2 360 24 392.2 24 432Z" stroke="#FFFFFF" stroke-width="1.00002" fill="#FFFFFF"/></svg>